<svg xmlns="http://www.w3.org/2000/svg" width="960" height="564" viewBox="0 0 960 564" role="img" aria-label="產業樣本數">
<style>
.title{font:700 24px sans-serif;fill:#0f172a}.label{font:14px sans-serif;fill:#334155}.value{font:13px sans-serif;fill:#0f172a}.bar{fill:#2563eb}
</style>
<rect width="100%" height="100%" fill="#ffffff"/>
<text x="24" y="38" class="title">產業樣本數</text>
<text x="24" y="96" class="label">IT 服務</text><rect x="230" y="74" width="620.0" height="24" rx="4" class="bar"/><text x="862.0" y="92" class="value">131 筆</text><text x="24" y="134" class="label">軟體 / 網路</text><rect x="230" y="112" width="506.4" height="24" rx="4" class="bar"/><text x="748.4" y="130" class="value">107 筆</text><text x="24" y="172" class="label">半導體 / 電子</text><rect x="230" y="150" width="340.8" height="24" rx="4" class="bar"/><text x="582.8" y="168" class="value">72 筆</text><text x="24" y="210" class="label">金融 / FinTech</text><rect x="230" y="188" width="189.3" height="24" rx="4" class="bar"/><text x="431.3" y="206" class="value">40 筆</text><text x="24" y="248" class="label">資安</text><rect x="230" y="226" width="165.6" height="24" rx="4" class="bar"/><text x="407.6" y="244" class="value">35 筆</text><text x="24" y="286" class="label">新創</text><rect x="230" y="264" width="108.9" height="24" rx="4" class="bar"/><text x="350.9" y="282" class="value">23 筆</text><text x="24" y="324" class="label">遊戲 / 娛樂</text><rect x="230" y="302" width="94.7" height="24" rx="4" class="bar"/><text x="336.7" y="320" class="value">20 筆</text><text x="24" y="362" class="label">電商 / 零售</text><rect x="230" y="340" width="71.0" height="24" rx="4" class="bar"/><text x="313.0" y="358" class="value">15 筆</text><text x="24" y="400" class="label">電信</text><rect x="230" y="378" width="66.3" height="24" rx="4" class="bar"/><text x="308.3" y="396" class="value">14 筆</text><text x="24" y="438" class="label">區塊鏈 / 加密貨幣</text><rect x="230" y="416" width="47.3" height="24" rx="4" class="bar"/><text x="289.3" y="434" class="value">10 筆</text><text x="24" y="476" class="label">博弈</text><rect x="230" y="454" width="42.6" height="24" rx="4" class="bar"/><text x="284.6" y="472" class="value">9 筆</text><text x="24" y="514" class="label">製造 / 工業</text><rect x="230" y="492" width="37.9" height="24" rx="4" class="bar"/><text x="279.9" y="510" class="value">8 筆</text>
</svg>
