<svg xmlns="http://www.w3.org/2000/svg" width="960" height="440" viewBox="0 0 960 440" role="img" aria-label="年資年薪對照">
<style>
.title{font:700 24px sans-serif;fill:#0f172a}.axis{font:12px sans-serif;fill:#475569}.legend{font:13px sans-serif;fill:#334155}.series{fill:none;stroke-width:4;stroke-linecap:round;stroke-linejoin:round}
</style>
<rect width="100%" height="100%" fill="#ffffff"/>
<text x="24" y="38" class="title">年資年薪對照（萬元）</text>
<line x1="76" y1="368" x2="918" y2="368" stroke="#cbd5e1"/>
<path d="M286.5,237.9 L497.0,216.2 L707.5,211.8 L918.0,177.1" class="series" stroke="#2563eb"/><path d="M76.0,180.0 L286.5,237.9 L497.0,216.2 L707.5,157.8 L918.0,76.0" class="series" stroke="#f97316"/><path d="M76.0,225.3 L286.5,248.7 L497.0,227.8 L707.5,181.1 L918.0,139.3" class="series" stroke="#14b8a6"/>
<circle cx="286.5" cy="237.9" r="4.5" fill="#2563eb" stroke="#ffffff" stroke-width="2"/><circle cx="497.0" cy="216.2" r="4.5" fill="#2563eb" stroke="#ffffff" stroke-width="2"/><circle cx="707.5" cy="211.8" r="4.5" fill="#2563eb" stroke="#ffffff" stroke-width="2"/><circle cx="918.0" cy="177.1" r="4.5" fill="#2563eb" stroke="#ffffff" stroke-width="2"/><circle cx="76.0" cy="180.0" r="4.5" fill="#f97316" stroke="#ffffff" stroke-width="2"/><circle cx="286.5" cy="237.9" r="4.5" fill="#f97316" stroke="#ffffff" stroke-width="2"/><circle cx="497.0" cy="216.2" r="4.5" fill="#f97316" stroke="#ffffff" stroke-width="2"/><circle cx="707.5" cy="157.8" r="4.5" fill="#f97316" stroke="#ffffff" stroke-width="2"/><circle cx="918.0" cy="76.0" r="4.5" fill="#f97316" stroke="#ffffff" stroke-width="2"/><circle cx="76.0" cy="225.3" r="4.5" fill="#14b8a6" stroke="#ffffff" stroke-width="2"/><circle cx="286.5" cy="248.7" r="4.5" fill="#14b8a6" stroke="#ffffff" stroke-width="2"/><circle cx="497.0" cy="227.8" r="4.5" fill="#14b8a6" stroke="#ffffff" stroke-width="2"/><circle cx="707.5" cy="181.1" r="4.5" fill="#14b8a6" stroke="#ffffff" stroke-width="2"/><circle cx="918.0" cy="139.3" r="4.5" fill="#14b8a6" stroke="#ffffff" stroke-width="2"/>
<text x="76.0" y="412" text-anchor="middle" class="axis">0-1 年</text><text x="286.5" y="412" text-anchor="middle" class="axis">1-3 年</text><text x="497.0" y="412" text-anchor="middle" class="axis">3-5 年</text><text x="707.5" y="412" text-anchor="middle" class="axis">5-8 年</text><text x="918.0" y="412" text-anchor="middle" class="axis">8+ 年</text>
<g><rect x="750" y="26" width="12" height="12" rx="3" fill="#2563eb"/><text x="770" y="36" class="legend">SaaS 公司案例</text></g><g><rect x="750" y="50" width="12" height="12" rx="3" fill="#f97316"/><text x="770" y="60" class="legend">同產業</text></g><g><rect x="750" y="74" width="12" height="12" rx="3" fill="#14b8a6"/><text x="770" y="84" class="legend">全市場</text></g>
</svg>
