<svg xmlns="http://www.w3.org/2000/svg" width="960" height="564" viewBox="0 0 960 564" role="img" aria-label="高薪樣本產業分布">
<style>
.title{font:700 24px sans-serif;fill:#0f172a}.label{font:14px sans-serif;fill:#334155}.value{font:13px sans-serif;fill:#0f172a}.bar{fill:#2563eb}
</style>
<rect width="100%" height="100%" fill="#ffffff"/>
<text x="24" y="38" class="title">高薪樣本產業分布</text>
<text x="24" y="96" class="label">軟體 / 網路</text><rect x="230" y="74" width="620.0" height="24" rx="4" class="bar"/><text x="862.0" y="92" class="value">22 筆</text><text x="24" y="134" class="label">半導體 / 電子</text><rect x="230" y="112" width="310.0" height="24" rx="4" class="bar"/><text x="552.0" y="130" class="value">11 筆</text><text x="24" y="172" class="label">資安</text><rect x="230" y="150" width="84.5" height="24" rx="4" class="bar"/><text x="326.5" y="168" class="value">3 筆</text><text x="24" y="210" class="label">區塊鏈 / 加密貨幣</text><rect x="230" y="188" width="84.5" height="24" rx="4" class="bar"/><text x="326.5" y="206" class="value">3 筆</text><text x="24" y="248" class="label">IT 服務</text><rect x="230" y="226" width="84.5" height="24" rx="4" class="bar"/><text x="326.5" y="244" class="value">3 筆</text><text x="24" y="286" class="label">新創</text><rect x="230" y="264" width="84.5" height="24" rx="4" class="bar"/><text x="326.5" y="282" class="value">3 筆</text><text x="24" y="324" class="label">博弈</text><rect x="230" y="302" width="56.4" height="24" rx="4" class="bar"/><text x="298.4" y="320" class="value">2 筆</text><text x="24" y="362" class="label">電商 / 零售</text><rect x="230" y="340" width="28.2" height="24" rx="4" class="bar"/><text x="270.2" y="358" class="value">1 筆</text><text x="24" y="400" class="label">媒體 / 出版</text><rect x="230" y="378" width="28.2" height="24" rx="4" class="bar"/><text x="270.2" y="396" class="value">1 筆</text><text x="24" y="438" class="label">外送 / 平台</text><rect x="230" y="416" width="28.2" height="24" rx="4" class="bar"/><text x="270.2" y="434" class="value">1 筆</text><text x="24" y="476" class="label">旅遊</text><rect x="230" y="454" width="28.2" height="24" rx="4" class="bar"/><text x="270.2" y="472" class="value">1 筆</text><text x="24" y="514" class="label">金融 / FinTech</text><rect x="230" y="492" width="28.2" height="24" rx="4" class="bar"/><text x="270.2" y="510" class="value">1 筆</text>
</svg>
