<svg xmlns="http://www.w3.org/2000/svg" width="960" height="564" viewBox="0 0 960 564" role="img" aria-label="高薪樣本職能分布">
<style>
.title{font:700 24px sans-serif;fill:#0f172a}.label{font:14px sans-serif;fill:#334155}.value{font:13px sans-serif;fill:#0f172a}.bar{fill:#2563eb}
</style>
<rect width="100%" height="100%" fill="#ffffff"/>
<text x="24" y="38" class="title">高薪樣本職能分布</text>
<text x="24" y="96" class="label">software engineer</text><rect x="230" y="74" width="620.0" height="24" rx="4" class="bar"/><text x="862.0" y="92" class="value">37 筆</text><text x="24" y="134" class="label">consultant</text><rect x="230" y="112" width="33.5" height="24" rx="4" class="bar"/><text x="275.5" y="130" class="value">2 筆</text><text x="24" y="172" class="label">architect</text><rect x="230" y="150" width="33.5" height="24" rx="4" class="bar"/><text x="275.5" y="168" class="value">2 筆</text><text x="24" y="210" class="label">backend engineer</text><rect x="230" y="188" width="33.5" height="24" rx="4" class="bar"/><text x="275.5" y="206" class="value">2 筆</text><text x="24" y="248" class="label">devops engineer</text><rect x="230" y="226" width="33.5" height="24" rx="4" class="bar"/><text x="275.5" y="244" class="value">2 筆</text><text x="24" y="286" class="label">mobile engineer</text><rect x="230" y="264" width="16.8" height="24" rx="4" class="bar"/><text x="258.8" y="282" class="value">1 筆</text><text x="24" y="324" class="label">product manager</text><rect x="230" y="302" width="16.8" height="24" rx="4" class="bar"/><text x="258.8" y="320" class="value">1 筆</text><text x="24" y="362" class="label">machine learning engineer</text><rect x="230" y="340" width="16.8" height="24" rx="4" class="bar"/><text x="258.8" y="358" class="value">1 筆</text><text x="24" y="400" class="label">fullstack engineer</text><rect x="230" y="378" width="16.8" height="24" rx="4" class="bar"/><text x="258.8" y="396" class="value">1 筆</text><text x="24" y="438" class="label">product engineer</text><rect x="230" y="416" width="16.8" height="24" rx="4" class="bar"/><text x="258.8" y="434" class="value">1 筆</text><text x="24" y="476" class="label">frontend engineer</text><rect x="230" y="454" width="16.8" height="24" rx="4" class="bar"/><text x="258.8" y="472" class="value">1 筆</text><text x="24" y="514" class="label">project manager</text><rect x="230" y="492" width="16.8" height="24" rx="4" class="bar"/><text x="258.8" y="510" class="value">1 筆</text>
</svg>
