<svg xmlns="http://www.w3.org/2000/svg" width="960" height="488" viewBox="0 0 960 488" role="img" aria-label="產業 5+ 年相對 0-5 年年薪差距">
<style>
.title{font:700 24px sans-serif;fill:#0f172a}.label{font:14px sans-serif;fill:#334155}.value{font:13px sans-serif;fill:#0f172a}.bar{fill:#2563eb}
</style>
<rect width="100%" height="100%" fill="#ffffff"/>
<text x="24" y="38" class="title">產業 5+ 年相對 0-5 年年薪差距</text>
<text x="24" y="96" class="label">半導體 / 電子</text><rect x="230" y="74" width="620.0" height="24" rx="4" class="bar"/><text x="862.0" y="92" class="value">53 萬</text><text x="24" y="134" class="label">軟體 / 網路</text><rect x="230" y="112" width="532.3" height="24" rx="4" class="bar"/><text x="774.3" y="130" class="value">45.5 萬</text><text x="24" y="172" class="label">電信</text><rect x="230" y="150" width="493.7" height="24" rx="4" class="bar"/><text x="735.7" y="168" class="value">42.2 萬</text><text x="24" y="210" class="label">資安</text><rect x="230" y="188" width="409.4" height="24" rx="4" class="bar"/><text x="651.4" y="206" class="value">35 萬</text><text x="24" y="248" class="label">IT 服務</text><rect x="230" y="226" width="335.7" height="24" rx="4" class="bar"/><text x="577.7" y="244" class="value">28.7 萬</text><text x="24" y="286" class="label">金融 / FinTech</text><rect x="230" y="264" width="304.2" height="24" rx="4" class="bar"/><text x="546.2" y="282" class="value">26 萬</text><text x="24" y="324" class="label">電商 / 零售</text><rect x="230" y="302" width="269.1" height="24" rx="4" class="bar"/><text x="511.1" y="320" class="value">23 萬</text><text x="24" y="362" class="label">新創</text><rect x="230" y="340" width="182.5" height="24" rx="4" class="bar"/><text x="424.5" y="358" class="value">15.6 萬</text><text x="24" y="400" class="label">遊戲 / 娛樂</text><rect x="230" y="378" width="146.2" height="24" rx="4" class="bar"/><text x="388.2" y="396" class="value">12.5 萬</text><text x="24" y="438" class="label">區塊鏈 / 加密貨幣</text><rect x="230" y="416" width="140.4" height="24" rx="4" class="bar"/><text x="382.4" y="434" class="value">12 萬</text>
</svg>
