<svg xmlns="http://www.w3.org/2000/svg" width="960" height="488" viewBox="0 0 960 488" role="img" aria-label="產業年薪中位數排行（n &gt;= 10）">
<style>
.title{font:700 24px sans-serif;fill:#0f172a}.label{font:14px sans-serif;fill:#334155}.value{font:13px sans-serif;fill:#0f172a}.bar{fill:#2563eb}
</style>
<rect width="100%" height="100%" fill="#ffffff"/>
<text x="24" y="38" class="title">產業年薪中位數排行（n &gt;= 10）</text>
<text x="24" y="96" class="label">區塊鏈 / 加密貨幣</text><rect x="230" y="74" width="620.0" height="24" rx="4" class="bar"/><text x="862.0" y="92" class="value">159 萬</text><text x="24" y="134" class="label">軟體 / 網路</text><rect x="230" y="112" width="436.7" height="24" rx="4" class="bar"/><text x="678.7" y="130" class="value">112 萬</text><text x="24" y="172" class="label">資安</text><rect x="230" y="150" width="421.1" height="24" rx="4" class="bar"/><text x="663.1" y="168" class="value">108 萬</text><text x="24" y="210" class="label">半導體 / 電子</text><rect x="230" y="188" width="406.7" height="24" rx="4" class="bar"/><text x="648.7" y="206" class="value">104.3 萬</text><text x="24" y="248" class="label">新創</text><rect x="230" y="226" width="382.1" height="24" rx="4" class="bar"/><text x="624.1" y="244" class="value">98 萬</text><text x="24" y="286" class="label">電信</text><rect x="230" y="264" width="368.5" height="24" rx="4" class="bar"/><text x="610.5" y="282" class="value">94.5 萬</text><text x="24" y="324" class="label">遊戲 / 娛樂</text><rect x="230" y="302" width="354.8" height="24" rx="4" class="bar"/><text x="596.8" y="320" class="value">91 萬</text><text x="24" y="362" class="label">電商 / 零售</text><rect x="230" y="340" width="354.8" height="24" rx="4" class="bar"/><text x="596.8" y="358" class="value">91 萬</text><text x="24" y="400" class="label">金融 / FinTech</text><rect x="230" y="378" width="329.5" height="24" rx="4" class="bar"/><text x="571.5" y="396" class="value">84.5 萬</text><text x="24" y="438" class="label">IT 服務</text><rect x="230" y="416" width="268.7" height="24" rx="4" class="bar"/><text x="510.7" y="434" class="value">68.9 萬</text>
</svg>
