<svg xmlns="http://www.w3.org/2000/svg" width="960" height="420" viewBox="0 0 960 420" role="img" aria-label="月薪分布">
<style>
.title{font:700 24px sans-serif;fill:#0f172a}.axis{font:12px sans-serif;fill:#475569}.bar{fill:#14b8a6}.note{font:13px sans-serif;fill:#475569}
</style>
<rect width="100%" height="100%" fill="#ffffff"/>
<text x="24" y="38" class="title">月薪分布</text>
<text x="64" y="412" class="note">單位：萬元</text>
<line x1="64" y1="362" x2="932" y2="362" stroke="#cbd5e1"/>
<rect x="67.5" y="343.6" width="65.3" height="18.4" rx="4" class="bar"/><rect x="139.8" y="70.0" width="65.3" height="292.0" rx="4" class="bar"/><rect x="212.2" y="229.3" width="65.3" height="132.7" rx="4" class="bar"/><rect x="284.5" y="323.2" width="65.3" height="38.8" rx="4" class="bar"/><rect x="356.8" y="343.6" width="65.3" height="18.4" rx="4" class="bar"/><rect x="429.2" y="351.8" width="65.3" height="10.2" rx="4" class="bar"/><rect x="501.5" y="355.9" width="65.3" height="6.1" rx="4" class="bar"/><rect x="573.8" y="356.9" width="65.3" height="5.1" rx="4" class="bar"/><rect x="646.2" y="360.0" width="65.3" height="2.0" rx="4" class="bar"/><rect x="718.5" y="362.0" width="65.3" height="0.0" rx="4" class="bar"/><rect x="790.8" y="362.0" width="65.3" height="0.0" rx="4" class="bar"/><rect x="863.2" y="361.0" width="65.3" height="1.0" rx="4" class="bar"/>
<text x="67.5" y="396" class="axis">0.5</text><text x="212.2" y="396" class="axis">7</text><text x="356.8" y="396" class="axis">13.6</text><text x="501.5" y="396" class="axis">20.2</text><text x="646.2" y="396" class="axis">26.8</text><text x="790.8" y="396" class="axis">33.4</text>
</svg>
